<svg width="67" height="70" viewBox="0 0 67 70" fill="none" xmlns="http://www.w3.org/2000/svg">
<path d="M19.2979 58.3333C19.2979 53.5008 25.4694 49.5833 33.0822 49.5833C40.695 49.5833 46.8664 53.5008 46.8664 58.3333" stroke="white" stroke-width="2" stroke-linecap="round" stroke-linejoin="round"/>
<path d="M49.6233 41.561C54.4916 42.9113 57.8938 45.9949 57.8938 49.583" stroke="white" stroke-width="2" stroke-linecap="round" stroke-linejoin="round"/>
<path d="M16.5411 41.561C11.6728 42.9113 8.27054 45.9949 8.27054 49.583" stroke="white" stroke-width="2" stroke-linecap="round" stroke-linejoin="round"/>
<path d="M33.0822 40.8332C37.6499 40.8332 41.3527 36.9157 41.3527 32.0833C41.3527 27.2508 37.6499 23.3333 33.0822 23.3333C28.5145 23.3333 24.8116 27.2508 24.8116 32.0833C24.8116 36.9157 28.5145 40.8332 33.0822 40.8332Z" stroke="white" stroke-width="2" stroke-linecap="round" stroke-linejoin="round"/>
<path d="M49.6233 29.8552C51.3153 28.253 52.3801 25.9247 52.3801 23.3333C52.3801 18.5008 48.6773 14.5833 44.1096 14.5833C41.9913 14.5833 40.0591 15.4257 38.5959 16.8113" stroke="white" stroke-width="2" stroke-linecap="round" stroke-linejoin="round"/>
<path d="M16.5411 29.8552C14.8491 28.253 13.7842 25.9247 13.7842 23.3333C13.7842 18.5008 17.4871 14.5833 22.0548 14.5833C24.173 14.5833 26.1053 15.4257 27.5685 16.8113" stroke="white" stroke-width="2" stroke-linecap="round" stroke-linejoin="round"/>
</svg>
