<svg width="70" height="70" viewBox="0 0 70 70" fill="none" xmlns="http://www.w3.org/2000/svg">
<path d="M25.3253 8.75H44.6747C45.4483 8.75 46.1901 9.05729 46.7371 9.60427L60.3957 23.2629C60.9427 23.8099 61.25 24.5518 61.25 25.3253V44.6747C61.25 45.4482 60.9427 46.1901 60.3957 46.7371L46.7371 60.3957C46.1901 60.9427 45.4483 61.25 44.6747 61.25H25.3253C24.5518 61.25 23.8099 60.9427 23.2629 60.3957L9.60428 46.7371C9.0573 46.1901 8.75001 45.4482 8.75001 44.6747V25.3253C8.75001 24.5518 9.0573 23.8099 9.60428 23.2629L23.2629 9.60427C23.8099 9.05729 24.5518 8.75 25.3253 8.75Z" stroke="white" stroke-width="2" stroke-miterlimit="10" stroke-linecap="round" stroke-linejoin="round"/>
<path d="M44.4571 29.8739C44.8476 29.4833 44.8476 28.8502 44.4571 28.4596C44.0666 28.0691 43.4334 28.0691 43.0429 28.4596L44.4571 29.8739ZM32.0833 40.8334L31.3762 41.5405C31.7668 41.931 32.3999 41.931 32.7904 41.5405L32.0833 40.8334ZM26.9571 34.293C26.5666 33.9025 25.9334 33.9025 25.5429 34.293C25.1524 34.6835 25.1524 35.3167 25.5429 35.7072L26.9571 34.293ZM43.0429 28.4596L31.3762 40.1263L32.7904 41.5405L44.4571 29.8739L43.0429 28.4596ZM32.7904 40.1263L26.9571 34.293L25.5429 35.7072L31.3762 41.5405L32.7904 40.1263Z" fill="white"/>
</svg>
